<?xml version="1.0" standalone="no"?>
<!DOCTYPE svg PUBLIC "-//W3C//DTD SVG 20010904//EN"
 "http://www.w3.org/TR/2001/REC-SVG-20010904/DTD/svg10.dtd">
<svg version="1.0" xmlns="http://www.w3.org/2000/svg"
 width="666.000000pt" height="666.000000pt" viewBox="0 0 666.000000 666.000000"
 preserveAspectRatio="xMidYMid meet">
<metadata>
Created by potrace 1.14, written by Peter Selinger 2001-2017
</metadata>
<g transform="translate(0.000000,666.000000) scale(0.100000,-0.100000)"
fill="#000000" stroke="none">
<path d="M1217 5910 c-71 -62 -74 -72 -34 -117 19 -21 37 -50 41 -65 16 -67
198 -303 290 -376 10 -8 15 -21 11 -32 -8 -26 39 -119 84 -166 21 -21 43 -54
49 -72 6 -18 24 -50 40 -70 16 -20 50 -75 76 -120 26 -46 63 -98 82 -115 24
-20 55 -71 95 -153 32 -68 80 -156 106 -196 71 -108 78 -121 152 -273 96 -198
99 -205 110 -254 7 -31 22 -56 51 -85 26 -25 58 -74 87 -135 168 -355 204
-420 256 -474 12 -12 51 -67 86 -122 35 -55 83 -129 107 -165 52 -77 65 -125
38 -134 -31 -9 -75 -16 -140 -23 -56 -5 -67 -3 -129 28 -37 19 -77 47 -89 63
-11 16 -43 50 -70 75 -27 25 -88 84 -135 130 -47 46 -106 97 -131 113 -25 16
-74 57 -110 92 -36 35 -74 66 -86 70 -45 14 -200 9 -251 -8 -86 -29 -127 -75
-167 -189 -20 -57 -33 -109 -30 -124 3 -14 27 -58 55 -97 40 -58 49 -79 48
-108 -2 -28 7 -48 45 -102 50 -70 65 -126 40 -147 -25 -21 -62 0 -121 68 -85
98 -106 117 -168 149 -31 15 -85 54 -120 86 -34 32 -87 70 -116 84 -30 15 -79
44 -109 64 -116 78 -117 78 -258 24 -90 -35 -96 -40 -92 -77 1 -10 -13 -39
-30 -65 -40 -59 -36 -91 19 -168 22 -31 43 -73 47 -93 3 -20 18 -76 32 -126
21 -72 34 -100 68 -137 30 -34 49 -70 67 -125 14 -43 22 -81 19 -85 -4 -3 -68
-37 -142 -74 -98 -49 -148 -68 -181 -70 -26 -2 -58 -6 -73 -9 -14 -3 -37 -7
-50 -10 -58 -12 -166 -50 -218 -76 -32 -16 -68 -29 -80 -29 -49 -1 -211 -97
-251 -149 -21 -26 -27 -45 -27 -80 0 -56 30 -125 68 -157 23 -20 87 -38 137
-38 43 0 112 21 184 58 117 58 205 91 276 106 33 6 90 27 128 46 37 19 86 37
110 40 55 8 166 45 246 83 65 31 83 30 117 -3 17 -18 36 -57 30 -63 -9 -9 21
-70 53 -110 17 -21 40 -60 52 -88 12 -27 52 -96 90 -153 37 -56 73 -120 80
-140 25 -77 50 -93 168 -111 62 -10 117 0 142 26 24 25 68 134 76 188 5 40 3
47 -26 76 -36 36 -49 63 -98 209 -38 113 -59 149 -110 194 -47 41 -76 92 -69
120 8 31 67 68 109 68 19 0 56 -14 87 -32 119 -70 205 -87 275 -53 25 12 54
43 91 95 62 89 193 229 242 260 41 25 120 26 163 1 16 -10 29 -21 29 -24 0
-25 378 -313 536 -409 51 -30 119 -80 152 -111 33 -31 94 -82 137 -114 78 -59
201 -167 244 -214 13 -14 33 -49 46 -77 24 -54 56 -84 90 -85 11 0 45 -12 75
-27 55 -27 74 -50 85 -105 6 -28 57 -84 137 -149 42 -34 68 -76 111 -178 26
-62 38 -71 99 -74 79 -5 133 7 225 50 83 38 102 57 110 108 2 17 8 44 13 60
27 79 5 140 -68 192 -30 21 -74 57 -97 79 -64 61 -254 291 -305 370 -53 82
-61 93 -116 154 -23 25 -54 66 -69 90 -15 25 -46 65 -70 90 -23 25 -58 71 -77
101 -19 30 -56 78 -82 105 -25 28 -56 64 -68 82 -16 22 -32 33 -53 35 -29 3
-30 5 -27 45 4 47 -5 67 -83 187 -60 92 -93 162 -89 188 4 32 43 74 81 90 21
9 74 26 117 38 43 12 118 39 166 60 47 22 113 48 146 59 200 66 342 135 383
187 26 34 68 53 99 47 79 -16 104 -8 297 88 105 52 219 106 255 119 36 13 112
46 170 73 58 27 151 67 208 89 56 22 108 46 115 53 24 24 91 55 118 55 25 0
120 46 392 189 53 28 104 51 112 51 24 0 112 47 209 113 93 62 152 92 198 101
38 6 46 12 64 47 18 36 11 79 -16 104 -14 12 -38 17 -92 18 -66 0 -81 -3 -158
-41 -46 -23 -96 -42 -110 -42 -14 0 -41 -11 -61 -24 -20 -14 -65 -32 -100 -41
-35 -9 -76 -23 -91 -31 -15 -8 -28 -12 -28 -10 0 3 -60 -24 -132 -59 -172 -82
-461 -205 -563 -239 -44 -15 -125 -49 -180 -75 -55 -26 -127 -58 -160 -70 -33
-13 -91 -37 -130 -53 -38 -17 -110 -45 -160 -63 -123 -45 -212 -91 -264 -136
-40 -36 -59 -45 -85 -40 -32 7 -220 -47 -281 -80 -38 -21 -97 -47 -130 -58
-257 -85 -364 -131 -430 -184 -34 -27 -47 -31 -95 -31 -30 1 -69 8 -87 17 -40
21 -146 152 -162 199 -7 20 -30 56 -51 81 -22 24 -54 75 -71 113 -18 38 -58
113 -91 167 -32 55 -58 101 -58 103 0 2 -16 28 -35 58 -23 36 -35 67 -35 90 0
33 -40 95 -77 119 -22 14 -43 64 -43 102 0 25 -15 60 -56 126 -31 49 -71 121
-90 158 -24 48 -46 76 -73 94 -36 24 -38 29 -34 64 4 36 1 41 -56 92 -65 59
-72 71 -41 71 23 0 26 24 7 57 -39 70 -101 163 -130 196 -19 21 -44 58 -56 82
-26 52 -124 186 -176 241 -69 72 -125 155 -198 298 -66 130 -117 205 -190 281
-15 17 -39 53 -52 82 -32 71 -63 87 -195 98 -65 6 -65 6 -113 -35z"/>
</g>
</svg>
